HIERARCHY
ROOT Hips
{
  OFFSET -4.35178 90.3298 111.633
  CHANNELS 6 Xposition Yposition Zposition Zrotation Xrotation Yrotation
  JOINT LeftUpLeg
  {
    OFFSET 0.103456 1.85784 10.5485
    CHANNELS 6 Xposition Yposition Zposition Zrotation Xrotation Yrotation
    JOINT LeftLeg
    {
      OFFSET 43.5 -4.2e-05 0
      CHANNELS 6 Xposition Yposition Zposition Zrotation Xrotation Yrotation
      JOINT LeftFoot
      {
        OFFSET 42.3722 1.9e-05 0
        CHANNELS 6 Xposition Yposition Zposition Zrotation Xrotation Yrotation
        JOINT LeftToe
        {
          OFFSET 17.3 0 0
          CHANNELS 6 Xposition Yposition Zposition Zrotation Xrotation Yrotation
          End Site
          {
            OFFSET 0 0 0
          }
        }
      }
    }
  }
  JOINT RightUpLeg
  {
    OFFSET 0.103456 1.85782 -10.5485
    CHANNELS 6 Xposition Yposition Zposition Zrotation Xrotation Yrotation
    JOINT RightLeg
    {
      OFFSET 43.5 -2.7e-05 0
      CHANNELS 6 Xposition Yposition Zposition Zrotation Xrotation Yrotation
      JOINT RightFoot
      {
        OFFSET 42.3723 0 0
        CHANNELS 6 Xposition Yposition Zposition Zrotation Xrotation Yrotation
        JOINT RightToe
        {
          OFFSET 17.3 0 1.7e-05
          CHANNELS 6 Xposition Yposition Zposition Zrotation Xrotation Yrotation
          End Site
          {
            OFFSET 0 0 0
          }
        }
      }
    }
  }
  JOINT Spine
  {
    OFFSET 6.90197 -2.60373 0
    CHANNELS 6 Xposition Yposition Zposition Zrotation Xrotation Yrotation
    JOINT Spine1
    {
      OFFSET 12.5881 0 0
      CHANNELS 6 Xposition Yposition Zposition Zrotation Xrotation Yrotation
      JOINT Spine2
      {
        OFFSET 12.3432 -1.8e-05 0
        CHANNELS 6 Xposition Yposition Zposition Zrotation Xrotation Yrotation
        JOINT Neck
        {
          OFFSET 25.8329 2.3e-05 0
          CHANNELS 6 Xposition Yposition Zposition Zrotation Xrotation Yrotation
          JOINT Head
          {
            OFFSET 11.7666 0 0
            CHANNELS 6 Xposition Yposition Zposition Zrotation Xrotation Yrotation
            End Site
            {
              OFFSET 0 0 0
            }
          }
        }
        JOINT LeftShoulder
        {
          OFFSET 19.7459 -1.48035 6.0001
          CHANNELS 6 Xposition Yposition Zposition Zrotation Xrotation Yrotation
          JOINT LeftArm
          {
            OFFSET 11.2841 1.8e-05 -2e-05
            CHANNELS 6 Xposition Yposition Zposition Zrotation Xrotation Yrotation
            JOINT LeftForeArm
            {
              OFFSET 33 -1.3e-05 1.9e-05
              CHANNELS 6 Xposition Yposition Zposition Zrotation Xrotation Yrotation
              JOINT LeftHand
              {
                OFFSET 25.2 3.2e-05 1.1e-05
                CHANNELS 6 Xposition Yposition Zposition Zrotation Xrotation Yrotation
                End Site
                {
                  OFFSET 0 0 0
                }
              }
            }
          }
        }
        JOINT RightShoulder
        {
          OFFSET 19.7461 -1.48036 -6.00008
          CHANNELS 6 Xposition Yposition Zposition Zrotation Xrotation Yrotation
          JOINT RightArm
          {
            OFFSET 11.2841 0 0
            CHANNELS 6 Xposition Yposition Zposition Zrotation Xrotation Yrotation
            JOINT RightForeArm
            {
              OFFSET 33.0001 1.6e-05 0
              CHANNELS 6 Xposition Yposition Zposition Zrotation Xrotation Yrotation
              JOINT RightHand
              {
                OFFSET 25.1998 0.000123 0.000432
                CHANNELS 6 Xposition Yposition Zposition Zrotation Xrotation Yrotation
                End Site
                {
                  OFFSET 0 0 0
                }
              }
            }
          }
        }
      }
    }
  }
}
MOTION
Frames:	9
Frame Time:	0.0333333
-78.6267 89.358 -143.291 -76.4101 57.8299 171.217 0.103456 1.85784 10.5485 -0.208323 12.3828 -175.204 43.5 -4.2e-05 1e-05 -23.5074 -8.05077 -3.15843 42.3722 1.9e-05 1.42109e-14 77.9192 -1.5401 2.44675 17.3 -1.42109e-14 3e-06 21.4546 -1e-06 0.003093 0.103456 1.85782 -10.5485 11.9553 -10.2784 177.242 43.5 -2.7e-05 4e-06 -8.53644 15.3623 4.65301 42.3723 0 1e-05 87.707 12.9037 -13.4865 17.3 -6e-06 1.7e-05 21.4546 -1.9e-05 -0.003116 6.90197 -2.60373 -3e-06 7.4688 0.329104 -0.236598 12.5881 1e-05 8e-06 4.91851 0.685791 -0.495272 12.3432 -1.8e-05 -5e-06 4.59156 0.725465 -0.525494 25.8329 2.3e-05 7e-06 5.29337 4.2245 -5.94438 11.7666 -8e-06 -6e-06 -3.86003 -1.99946 17.4886 19.7459 -1.48035 6.0001 -179.844 -1.07623 -82.3496 11.2841 1.8e-05 -2e-05 -13.9504 -11.7793 65.4817 33 -1.3e-05 1.9e-05 -22.7607 8.54346 -8.97617 25.2 3.2e-05 1.1e-05 -12.3617 26.7225 5.91325 19.7461 -1.48036 -6.00008 -170.505 -7.79935 63.9677 11.2841 2.84217e-14 -1e-06 -24.4653 -17.1533 -40.3918 33.0001 1.6e-05 -1e-06 -42.7054 3.41664 14.1804 25.1998 0.000123 0.000432 6.67612 -18.1594 12.1816 
-78.4324 89.3559 -143.309 -76.2499 57.7636 171.137 0.103456 1.85784 10.5485 0.00233206 12.444 -175.393 43.5 -4.2e-05 1e-05 -23.4171 -8.04129 -3.13385 42.3722 1.9e-05 0 77.9312 -1.46727 2.36132 17.3 -1.42109e-14 3e-06 21.4546 -1e-06 0.003093 0.103456 1.85782 -10.5485 11.9568 -10.2348 177.063 43.5 -2.7e-05 4e-06 -8.72859 15.3621 4.65754 42.3723 2.84217e-14 1e-05 87.7977 13.0109 -13.5708 17.3 -6e-06 1.7e-05 21.4546 -1.9e-05 -0.003116 6.90197 -2.60373 -3e-06 7.45145 0.344868 -0.2517 12.5881 1e-05 8e-06 4.8837 0.714712 -0.527605 12.3432 -1.8e-05 -5e-06 4.55644 0.751847 -0.559612 25.8329 2.3e-05 7e-06 5.2684 4.33081 -5.99947 11.7666 -8e-06 -6e-06 -3.95043 -1.91274 17.5868 19.7459 -1.48035 6.0001 -179.8 -0.981473 -82.3418 11.2841 1.8e-05 -2e-05 -13.9598 -11.854 65.4297 33 -1.3e-05 1.9e-05 -22.8139 8.58007 -8.98972 25.2 3.2e-05 1.1e-05 -12.5075 26.6726 5.94254 19.7461 -1.48036 -6.00008 -170.513 -7.77513 64.018 11.2841 0 -1e-06 -24.4836 -17.0706 -40.3701 33.0001 1.6e-05 -1e-06 -42.8471 3.48823 14.1762 25.1998 0.000123 0.000432 6.70767 -18.1287 12.1716 
-78.2452 89.3571 -143.346 -76.0983 57.6875 171.055 0.103456 1.85784 10.5485 0.233656 12.521 -175.542 43.5 -4.2e-05 1e-05 -23.2751 -8.02238 -3.12309 42.3722 1.9e-05 0 77.9537 -1.42112 2.22666 17.3 0 3e-06 21.4546 -1e-06 0.003093 0.103456 1.85782 -10.5485 11.9407 -10.2145 176.888 43.5 -2.7e-05 4e-06 -9.012 15.3478 4.6736 42.3723 2.84217e-14 1e-05 87.8643 13.1336 -13.6616 17.3 -6e-06 1.7e-05 21.4546 -1.9e-05 -0.003116 6.90197 -2.60373 -3e-06 7.42593 0.351478 -0.258217 12.5881 1e-05 8e-06 4.83265 0.726532 -0.541479 12.3432 -1.8e-05 -5e-06 4.50527 0.762017 -0.57428 25.8329 2.3e-05 7e-06 5.27082 4.32467 -6.00008 11.7666 -8e-06 -6e-06 -3.95307 -1.93634 17.5847 19.7459 -1.48035 6.0001 -179.766 -0.94915 -82.3621 11.2841 1.8e-05 -2e-05 -14.037 -11.9162 65.4379 33 -1.3e-05 1.9e-05 -22.8863 8.63138 -8.96825 25.2 3.2e-05 1.1e-05 -12.5442 26.658 5.96976 19.7461 -1.48036 -6.00008 -170.483 -7.80697 64.0513 11.2841 2.84217e-14 -1e-06 -24.4879 -17.0148 -40.3536 33.0001 1.6e-05 -1e-06 -42.9814 3.43396 14.23 25.1998 0.000123 0.000432 6.65586 -18.1119 12.1427 
-78.0575 89.3723 -143.387 -76.0266 57.6338 171.038 0.103456 1.85784 10.5485 0.445305 12.6156 -175.7 43.5 -4.2e-05 1e-05 -23.0801 -8.02165 -3.10797 42.3722 1.9e-05 0 77.9286 -1.34996 2.1088 17.3 0 3e-06 21.4546 -1e-06 0.003093 0.103456 1.85782 -10.5485 11.9257 -10.1918 176.716 43.5 -2.7e-05 4e-06 -9.19775 15.346 4.69401 42.3723 2.84217e-14 1e-05 87.9255 13.1981 -13.7448 17.3 -6e-06 1.7e-05 21.4546 -1.9e-05 -0.003116 6.90197 -2.60373 -3e-06 7.38348 0.370916 -0.269425 12.5881 1e-05 8e-06 4.74755 0.762889 -0.566459 12.3432 -1.8e-05 -5e-06 4.41975 0.795461 -0.601584 25.8329 2.3e-05 7e-06 5.28268 4.40758 -6.05153 11.7666 -8e-06 -6e-06 -4.00569 -1.86206 17.6506 19.7459 -1.48035 6.0001 -179.689 -0.869184 -82.3653 11.2841 1.8e-05 -2e-05 -14.0159 -12.0032 65.4734 33 -1.3e-05 1.9e-05 -22.9288 8.53209 -8.95538 25.2 3.2e-05 1.1e-05 -12.5095 26.6632 5.92358 19.7461 -1.48036 -6.00008 -170.453 -7.78186 64.0882 11.2841 2.84217e-14 -1e-06 -24.5539 -16.9842 -40.4183 33.0001 1.6e-05 -1e-06 -43.0752 3.40176 14.2594 25.1998 0.000123 0.000432 6.52937 -18.0842 12.1053 
-77.871 89.3976 -143.433 -75.9733 57.5894 171.045 0.103456 1.85784 10.5485 0.71318 12.7083 -175.894 43.5 -4.2e-05 1e-05 -22.7438 -8.0224 -3.08043 42.3722 1.9e-05 0 77.8461 -1.34131 1.96484 17.3 0 3e-06 21.4546 -1e-06 0.003093 0.103456 1.85782 -10.5485 11.8557 -10.1605 176.52 43.5 -2.7e-05 4e-06 -9.45461 15.3268 4.73621 42.3723 0 1e-05 87.9083 13.3865 -13.8303 17.3 -6e-06 1.7e-05 21.4546 -1.9e-05 -0.003116 6.90197 -2.60373 -3e-06 7.34756 0.379225 -0.281489 12.5881 1e-05 8e-06 4.6757 0.777143 -0.591597 12.3432 -1.8e-05 -5e-06 4.34779 0.807053 -0.627663 25.8329 2.3e-05 7e-06 5.29221 4.39791 -6.05913 11.7666 -8e-06 -6e-06 -4.05791 -1.91375 17.6694 19.7459 -1.48035 6.0001 -179.645 -0.80435 -82.3891 11.2841 1.8e-05 -2e-05 -14.1059 -12.0522 65.492 33 -1.3e-05 1.9e-05 -22.9957 8.44047 -8.8975 25.2 3.2e-05 1.1e-05 -12.4833 26.6692 5.89484 19.7461 -1.48036 -6.00008 -170.398 -7.81614 64.1418 11.2841 0 -1e-06 -24.5558 -16.8755 -40.4907 33.0001 1.6e-05 -1e-06 -43.1931 3.46067 14.2939 25.1998 0.000123 0.000432 6.63356 -18.0364 12.0842 
-77.703 89.4214 -143.485 -75.9423 57.5475 171.065 0.103456 1.85784 10.5485 0.992829 12.8177 -176.064 43.5 -4.2e-05 1e-05 -22.3405 -8.01289 -3.06236 42.3722 1.9e-05 0 77.7556 -1.34897 1.76761 17.3 0 3e-06 21.4546 -1e-06 0.003093 0.103456 1.85782 -10.5485 11.8031 -10.1014 176.344 43.5 -2.7e-05 4e-06 -9.62859 15.3084 4.77965 42.3723 2.84217e-14 1e-05 87.8249 13.5784 -13.9335 17.3 -6e-06 1.7e-05 21.4546 -1.9e-05 -0.003116 6.90197 -2.60373 -3e-06 7.31792 0.387736 -0.292855 12.5881 1e-05 8e-06 4.61641 0.792091 -0.615342 12.3432 -1.8e-05 -5e-06 4.28836 0.819586 -0.652389 25.8329 2.3e-05 7e-06 5.32428 4.39919 -6.06565 11.7666 -8e-06 -6e-06 -4.2562 -1.97814 17.6966 19.7459 -1.48035 6.0001 -179.598 -0.69885 -82.4188 11.2841 1.8e-05 -2e-05 -14.1203 -12.1602 65.5827 33 -1.3e-05 1.9e-05 -23.0916 8.43641 -8.89599 25.2 3.2e-05 1.1e-05 -12.54 26.6246 5.91416 19.7461 -1.48036 -6.00008 -170.364 -7.86905 64.1979 11.2841 0 -1e-06 -24.6259 -16.8099 -40.5493 33.0001 1.6e-05 -1e-06 -43.2421 3.54285 14.3011 25.1998 0.000123 0.000432 6.62139 -18.0066 12.1013 
-77.5476 89.4496 -143.532 -75.963 57.5289 171.117 0.103456 1.85784 10.5485 1.30891 13.0005 -176.212 43.5 -4.2e-05 1e-05 -21.8101 -8.00088 -3.06744 42.3722 1.9e-05 0 77.6684 -1.27367 1.51902 17.3 -7.10543e-15 3e-06 21.4546 -1e-06 0.003093 0.103456 1.85782 -10.5485 11.6509 -10.2972 176.142 43.5 -2.7e-05 4e-06 -9.95012 15.2831 4.87988 42.3723 0 1e-05 87.7577 13.5891 -13.8694 17.3 -6e-06 1.7e-05 21.4546 -1.9e-05 -0.003116 6.90197 -2.60373 -3e-06 7.27408 0.397544 -0.299183 12.5881 1e-05 8e-06 4.52866 0.810056 -0.629193 12.3432 -1.8e-05 -5e-06 4.20041 0.835341 -0.667465 25.8329 2.3e-05 7e-06 5.3749 4.38684 -6.07623 11.7666 -8e-06 -6e-06 -4.42957 -2.03634 17.7212 19.7459 -1.48035 6.0001 -179.55 -0.629578 -82.4501 11.2841 1.8e-05 -2e-05 -14.2672 -12.1359 65.5978 33 -1.3e-05 1.9e-05 -23.2303 8.2805 -8.7855 25.2 3.2e-05 1.1e-05 -12.5363 26.5936 5.90785 19.7461 -1.48036 -6.00008 -170.316 -7.88169 64.2642 11.2841 0 -1e-06 -24.7054 -16.7784 -40.6398 33.0001 1.6e-05 -1e-06 -43.3079 3.60422 14.3035 25.1998 0.000123 0.000432 6.566 -17.9229 12.0218 
-77.4118 89.4699 -143.578 -76.0383 57.4785 171.202 0.103456 1.85784 10.5485 1.49933 13.0159 -176.356 43.5 -4.2e-05 1e-05 -21.44 -8.0063 -3.04396 42.3722 1.9e-05 -2.84217e-14 77.6865 -1.45276 1.37225 17.3 7.10543e-15 3e-06 21.4546 -1e-06 0.003093 0.103456 1.85782 -10.5485 11.599 -10.285 176.027 43.5 -2.7e-05 4e-06 -10.0187 15.2961 4.90137 42.3723 0 1e-05 87.7217 13.6221 -13.9267 17.3 -6e-06 1.7e-05 21.4546 -1.9e-05 -0.003116 6.90197 -2.60373 -3e-06 7.24648 0.401571 -0.3033 12.5881 1e-05 8e-06 4.47345 0.816902 -0.637849 12.3432 -1.8e-05 -5e-06 4.14513 0.840801 -0.676632 25.8329 2.3e-05 7e-06 5.43188 4.38053 -6.08498 11.7666 -8e-06 -6e-06 -4.72041 -2.11659 17.7516 19.7459 -1.48035 6.0001 -179.518 -0.528521 -82.4944 11.2841 1.8e-05 -2e-05 -14.321 -12.194 65.6493 33 -1.3e-05 1.9e-05 -23.3904 8.22295 -8.74844 25.2 3.2e-05 1.1e-05 -12.684 26.5734 5.88612 19.7461 -1.48036 -6.00008 -170.264 -7.92301 64.3112 11.2841 -2.84217e-14 -1e-06 -24.7198 -16.7376 -40.7651 33.0001 1.6e-05 -1e-06 -43.4037 3.5031 14.4073 25.1998 0.000123 0.000432 6.39989 -17.9141 12.0224 
-77.3123 89.4786 -143.619 -76.1742 57.3897 171.314 0.103456 1.85784 10.5485 1.57491 13.0113 -176.425 43.5 -4.2e-05 1e-05 -21.2111 -7.99502 -3.04678 42.3722 1.9e-05 0 77.6526 -1.4666 1.26693 17.3 0 3e-06 21.4546 -1e-06 0.003093 0.103456 1.85782 -10.5485 11.594 -10.3011 175.979 43.5 -2.7e-05 4e-06 -9.94068 15.3122 4.916 42.3723 2.84217e-14 1e-05 87.6365 13.7151 -13.9574 17.3 -6e-06 1.7e-05 21.4546 -1.9e-05 -0.003116 6.90197 -2.60373 -3e-06 7.22049 0.404153 -0.2968 12.5881 1e-05 8e-06 4.42134 0.822483 -0.625172 12.3432 -1.8e-05 -5e-06 4.09293 0.846358 -0.664401 25.8329 2.3e-05 7e-06 5.49943 4.36843 -6.08756 11.7666 -8e-06 -6e-06 -4.97632 -2.18722 17.77 19.7459 -1.48035 6.0001 -179.526 -0.448519 -82.5576 11.2841 1.8e-05 -2e-05 -14.4518 -12.2365 65.7054 33 -1.3e-05 1.9e-05 -23.4949 8.19284 -8.69811 25.2 3.2e-05 1.1e-05 -12.696 26.5795 5.87562 19.7461 -1.48036 -6.00008 -170.221 -7.95218 64.3652 11.2841 0 -1e-06 -24.812 -16.7268 -40.8253 33.0001 1.6e-05 -1e-06 -43.3826 3.50952 14.4149 25.1998 0.000123 0.000432 6.42265 -17.923 12.044 
